# xmcd
#
# Track frame offsets:
#	150
#	19781
#	37141
#	57334
#	74420
#	92500
#	105442
#	123996
#	138588
#	152520
#	164388
#	180466
#	194625
#	210157
#
# Disc length: 2994 seconds
#
# Revision: 2
# Processed by: cddbd v1.5.2PL0 Copyright (c) Steve Scherf et al.
# Submitted via: EasyCDDAExtractor 12.0.4.1
#
DISCID=bc0bb00e
DTITLE=Paradox - In paradise
DYEAR=1900
DGENRE=Acoustic
TTITLE0=ใครซักคน
TTITLE1=มองตา
TTITLE2=ผงาดง้ำค้ำโลก
TTITLE3=นักมายากล
TTITLE4=ขอ
TTITLE5=ทะเลแสนหวาน
TTITLE6=เพลงสุดท้าย
TTITLE7=เศษ
TTITLE8=ส่งรักส่งยิ้ม
TTITLE9=ก็มีแค่นั้น
TTITLE10=กลิ่นโรงพยาบาล
TTITLE11=เงา
TTITLE12=ใครซักคน(Accapella)
TTITLE13=สิงห์รถบรรทุก
EXTD=
EXTT0=
EXTT1=
EXTT2=
EXTT3=
EXTT4=
EXTT5=
EXTT6=
EXTT7=
EXTT8=
EXTT9=
EXTT10=
EXTT11=
EXTT12=
EXTT13=
PLAYORDER=
